<svg width="167" height="82" viewBox="0 0 167 82" fill="none" xmlns="http://www.w3.org/2000/svg">
<path fill-rule="evenodd" clip-rule="evenodd" d="M58.6744 36.9399C58.8739 36.9304 59.0433 37.0844 59.0528 37.2838C59.3322 43.153 63.217 44.9088 65.0513 45.0756L65.0628 45.0766L65.0743 45.0784C75.1439 46.6496 79.5564 42.217 80.5026 39.963C80.5798 39.7789 80.7917 39.6923 80.9758 39.7696C81.16 39.8468 81.2466 40.0587 81.1693 40.2429C80.0671 42.8687 75.2876 47.4 64.9741 45.7946C62.8279 45.5936 58.6289 43.5853 58.3305 37.3182C58.321 37.1188 58.475 36.9494 58.6744 36.9399Z" fill="#DA3EB7" stroke="#DA3EB7" stroke-linecap="round"/>
<path fill-rule="evenodd" clip-rule="evenodd" d="M75.1398 38.1743C75.1243 37.9889 74.9689 37.8433 74.7795 37.8433C74.5798 37.8433 74.418 38.0051 74.418 38.2048C74.418 38.3234 74.4648 38.4403 74.4956 38.5111C74.5335 38.5982 74.5849 38.6965 74.6429 38.7989C74.7596 39.0046 74.9178 39.2527 75.0892 39.5087C75.4328 40.0218 75.8436 40.5877 76.1172 40.9525L76.2472 41.1259L77.4152 40.9462L78.3707 42.2998C78.4858 42.463 78.7114 42.5019 78.8746 42.3867C79.0377 42.2716 79.0766 42.046 78.9614 41.8829L77.7477 40.1634L76.5665 40.3452C76.3078 39.9953 75.9742 39.5307 75.69 39.1063C75.5225 38.8561 75.3756 38.6252 75.272 38.4423C75.2199 38.3504 75.1822 38.2768 75.1587 38.2227C75.1474 38.1968 75.1421 38.1812 75.1398 38.1743Z" fill="#DA3EB7" stroke="#DA3EB7" stroke-linecap="round"/>
<path fill-rule="evenodd" clip-rule="evenodd" d="M65.4707 37.03C65.4707 36.8303 65.6326 36.6685 65.8322 36.6685H70.8938C71.0935 36.6685 71.2553 36.8303 71.2553 37.03C71.2553 37.2297 71.0935 37.3915 70.8938 37.3915H65.8322C65.6326 37.3915 65.4707 37.2297 65.4707 37.03Z" fill="#DA3EB7" stroke="#DA3EB7" stroke-linecap="round"/>
<path fill-rule="evenodd" clip-rule="evenodd" d="M67.4716 31.5351C67.6109 31.392 67.8398 31.389 67.9829 31.5283L71.4175 34.8725C71.5606 35.0118 71.5636 35.2407 71.4243 35.3838C71.285 35.5268 71.0561 35.5299 70.9131 35.3906L67.4785 32.0464C67.3354 31.9071 67.3324 31.6782 67.4716 31.5351Z" fill="#DA3EB7" stroke="#DA3EB7" stroke-linecap="round"/>
<path fill-rule="evenodd" clip-rule="evenodd" d="M75.5539 30.208C74.6163 29.8803 73.6479 29.9227 73.0548 30.0606C72.8604 30.1059 72.666 29.9849 72.6208 29.7904C72.5756 29.5959 72.6966 29.4016 72.8911 29.3563C73.5935 29.193 74.704 29.145 75.7925 29.5254C76.8959 29.9109 77.9699 30.7362 78.5538 32.2931C78.6239 32.48 78.5292 32.6884 78.3422 32.7586C78.1553 32.8287 77.9469 32.7339 77.8767 32.547C77.376 31.2116 76.4766 30.5304 75.5539 30.208Z" fill="#DA3EB7" stroke="#DA3EB7" stroke-linecap="round"/>
<path fill-rule="evenodd" clip-rule="evenodd" d="M29.8269 47.5784C26.0164 51.0573 24.5683 54.3979 24.645 57.499C24.7222 60.6195 26.3451 63.6037 28.8966 66.3492C34.0062 71.8472 43.3818 76.7835 49.8339 79.1092C50.0687 79.1939 49.4798 78.8744 49.3951 79.1092C49.3105 79.344 49.0515 79.4658 48.8167 79.3811C42.3136 77.037 33.4891 72.6185 28.2346 66.9645C25.6041 64.1341 23.8262 60.9483 23.7415 57.5214C23.6563 54.0791 25.2812 50.4993 29.2328 46.8969L29.2475 46.8835L29.2634 46.8714C31.9085 44.8568 36.3126 42.7629 40.9301 43.0856C45.1481 43.3804 49.4566 45.6851 52.7165 51.6887C53.3139 50.487 54.124 49.2287 55.1296 48.1046C56.659 46.3949 58.6682 44.966 61.0983 44.5567C63.5411 44.1453 66.3349 44.7768 69.3952 47.0488C74.293 50.6851 75.5434 54.8806 75.0513 58.6575C74.5647 62.3915 72.3852 65.6549 70.5313 67.5242C70.3556 67.7014 70.0694 67.7026 69.8922 67.5268C69.715 67.3511 70.1732 67.7644 70.1705 67.128C71.9321 65.3517 73.7016 62.0208 74.155 58.5407C74.6029 55.1033 73.5033 51.2244 68.8564 47.7745C65.9513 45.6177 63.4011 45.0855 61.2484 45.448C59.083 45.8127 57.2452 47.0953 55.8032 48.7072C54.6822 49.9604 53.817 51.3948 53.2391 52.7017C53.403 53.0361 53.5638 53.3808 53.7215 53.736L53.7338 53.7635L53.7422 53.7924C53.9276 54.4257 54.1174 55.3819 54.0185 56.1151C53.97 56.4743 53.8366 56.8969 53.4719 57.1389C53.0859 57.3949 52.61 57.3427 52.1341 57.1358C51.8498 57.0122 51.688 56.7655 51.6024 56.5186C51.5175 56.2738 51.4905 55.9863 51.4987 55.6863C51.515 55.0831 51.677 54.3217 51.9584 53.4943C52.0424 53.2474 52.1376 52.9926 52.2441 52.732C49.0707 46.4948 44.8647 44.2666 40.8671 43.9872C36.5486 43.6854 32.3654 45.65 29.8269 47.5784ZM52.7879 53.8633C52.5401 54.6094 52.4147 55.2474 52.4022 55.7107C52.3956 55.9519 52.4206 56.1193 52.4564 56.2224C52.4759 56.2788 52.4931 56.3019 52.5003 56.3094C52.8512 56.4607 52.9595 56.3941 52.9722 56.3857C53.0063 56.3631 53.0853 56.2716 53.1227 55.9943C53.1944 55.4631 53.0554 54.6736 52.883 54.0749C52.8515 54.0039 52.8197 53.9334 52.7879 53.8633ZM52.5037 56.3124C52.5037 56.3124 52.5028 56.312 52.5013 56.3105C52.503 56.3116 52.5037 56.3124 52.5037 56.3124Z" fill="#DA3EB7" stroke="#DA3EB7" stroke-linecap="round"/>
<path fill-rule="evenodd" clip-rule="evenodd" d="M78.3872 44.6293C78.691 44.5026 79.0821 44.4123 79.3993 44.4658C79.5672 44.4941 79.7 44.5598 79.7988 44.669C79.8985 44.7793 79.9929 44.9662 80.0236 45.2892C80.0426 45.488 80.219 45.6338 80.4178 45.6148C80.6166 45.5959 80.7624 45.4194 80.7434 45.2206C80.7019 44.7844 80.5642 44.4373 80.335 44.1839C80.1049 43.9296 79.8117 43.8021 79.5195 43.7528C78.955 43.6576 78.3464 43.8439 77.9679 44.0249L77.8584 44.0773L73.4642 52.591C73.3726 52.7685 73.4422 52.9866 73.6196 53.0781C73.7971 53.1697 74.0151 53.1001 74.1067 52.9227L78.3872 44.6293Z" fill="#DA3EB7" stroke="#DA3EB7" stroke-linecap="round"/>
<path fill-rule="evenodd" clip-rule="evenodd" d="M61.8732 7.27219C61.9347 7.08224 62.1386 6.97813 62.3285 7.03967L75.4133 11.2784V19.3144C75.4133 19.5141 75.613 20.3086 75.4133 20.3086C75.2136 20.3086 74.6902 19.7852 74.6902 19.5856V11.8042L62.1057 7.72755C61.9157 7.66602 61.8116 7.46215 61.8732 7.27219Z" fill="#DA3EB7" stroke="#DA3EB7" stroke-linecap="round"/>
<path fill-rule="evenodd" clip-rule="evenodd" d="M74.9204 19.7362C75.0369 19.6643 75.1896 19.7004 75.2614 19.8169C76.3404 21.5644 77.9299 24.6673 79.205 28.314C80.4794 31.9589 81.4464 36.1655 81.2635 40.1144C81.2572 40.2511 81.1412 40.3568 81.0045 40.3504C80.8678 40.3441 80.7621 40.2281 80.7684 40.0914C80.9472 36.231 80.0009 32.0921 78.7371 28.4776C77.4739 24.8649 75.8999 21.7945 74.8397 20.0773C74.7678 19.9608 74.8039 19.8081 74.9204 19.7362Z" fill="#DA3EB7" stroke="#DA3EB7" stroke-linecap="round"/>
<path fill-rule="evenodd" clip-rule="evenodd" d="M36.4963 1.18712C47.2467 0.133135 57.1276 3.71443 62.9504 7.34797C63.1198 7.45368 63.1715 7.6767 63.0658 7.84609C62.9601 8.01549 62.737 8.06712 62.5676 7.96141C56.8513 4.3943 47.1278 0.871339 36.5669 1.90675C26.032 2.93962 14.6269 8.51107 5.50296 23.1916C3.11972 28.3855 0.906097 37.1294 2.01788 46.4684C3.12949 55.806 7.56419 65.7402 18.496 73.3388C29.4254 80.9356 40.2355 81.4846 49.3471 79.1021C58.4559 76.7203 65.8699 71.4063 69.9812 67.2582C70.7819 66.0907 71.8009 64.7776 72.8821 63.3845C72.9571 63.2878 73.0324 63.1907 73.108 63.0933C74.2843 61.5768 75.5248 59.9668 76.6517 58.3259C78.6732 55.3822 80.2802 52.4052 80.5342 49.7494C80.5334 49.6933 80.5327 49.6195 80.5322 49.5359C80.5315 49.4305 80.531 49.3103 80.5305 49.1849C80.5299 49.0303 80.5292 48.8678 80.5281 48.7152C80.5275 48.6293 80.5268 48.5483 80.5259 48.4763C80.3767 47.2297 80.2106 45.8319 80.1531 45.3223C80.1452 45.2526 80.1392 45.1982 80.1356 45.1627C80.1346 45.1527 80.1336 45.1428 80.1327 45.1337C80.1322 45.1276 80.1317 45.122 80.1313 45.117C80.1312 45.1146 80.1309 45.1112 80.1307 45.1072L80.1304 45.1024C80.1303 45.0994 80.1301 45.0946 80.13 45.0887C80.13 45.0869 80.13 45.0831 80.1301 45.0781C80.1302 45.072 80.1305 45.0641 80.1312 45.0552C80.132 45.0459 80.1355 45.0212 80.1385 45.0059C80.1462 44.9766 80.1913 44.8822 80.2389 44.8248C80.3809 44.7392 80.6579 44.7623 80.7521 44.8325C80.781 44.8665 80.8153 44.9221 80.8241 44.941C80.8358 44.9684 80.8415 44.9916 80.8422 44.9943C80.8442 45.002 80.8455 45.0083 80.8462 45.0117C80.8531 45.045 80.8696 45.1705 80.8949 45.369C80.9493 45.7932 81.0566 46.6529 81.2373 48.117C81.2433 48.1655 81.2456 48.2586 81.2472 48.3466C81.2476 48.3722 81.2481 48.3996 81.2485 48.4286C81.2609 48.5326 81.2732 48.6355 81.2854 48.7368L81.2872 48.7519L81.2877 48.7671C81.2975 49.0474 81.2915 49.3305 81.2708 49.6163C81.2678 49.7342 81.2653 49.8076 81.2631 49.8444C81.2626 49.8527 81.2613 49.8752 81.258 49.8973C81.2574 49.9013 81.2559 49.9108 81.2532 49.9232C81.2521 49.9282 81.2508 49.9336 81.2492 49.9393C81.2478 49.9446 81.2451 49.954 81.2409 49.9659C81.2398 49.969 81.2386 49.9723 81.2373 49.9757C80.916 52.7994 79.2278 55.852 77.2478 58.7353C76.1075 60.3956 74.8549 62.021 73.6793 63.5365C73.6052 63.632 73.5315 63.727 73.4581 63.8216C72.3635 65.2321 71.35 66.538 70.5594 67.6936L70.541 67.7205L70.518 67.7437C66.3394 71.9679 58.8053 77.3764 49.53 79.8017C40.2408 82.2306 29.2079 81.6649 18.0833 73.9325C6.96128 66.2018 2.43281 56.0706 1.29987 46.5539C0.16856 37.0509 2.43111 28.1419 4.86483 22.8486C14.1051 7.96956 25.7246 2.2432 36.4963 1.18712Z" fill="#DA3EB7" stroke="#DA3EB7" stroke-linecap="round"/>
<path d="M108.988 40.796V46.088H111.724V40.796H108.988ZM101.212 44.936V71.684L103.804 71.072V44.936H101.212ZM102.688 44.936V47.384H117.16V57.608H102.688V60.02H119.824V44.936H102.688ZM102.652 51.344V53.648H118.564V51.344H102.652ZM98.116 70.784L98.656 73.34C102.292 72.692 107.296 71.828 112.084 70.928L111.904 68.552C106.792 69.416 101.536 70.28 98.116 70.784ZM110.644 59.012L108.232 59.588C110.464 66.572 114.748 71.684 121.3 73.952C121.696 73.304 122.488 72.26 123.1 71.72C116.8 69.812 112.588 65.132 110.644 59.012ZM120.04 60.848C118.168 62.468 115 64.556 112.768 65.816L114.28 67.508C116.548 66.284 119.608 64.412 121.768 62.612L120.04 60.848ZM91.24 43.028C93.544 44.108 96.316 45.836 97.684 47.132L99.232 44.936C97.864 43.676 95.02 42.056 92.752 41.084L91.24 43.028ZM89.332 52.82C91.672 53.792 94.516 55.412 95.92 56.636L97.468 54.404C96.028 53.216 93.112 51.668 90.808 50.804L89.332 52.82ZM90.412 71.648L92.752 73.376C94.732 70.028 97.108 65.456 98.872 61.64L96.82 59.984C94.876 64.088 92.248 68.876 90.412 71.648ZM133.9 53.072V61.856H136.42V55.16H152.764V61.856H155.356V53.072H133.9ZM142.54 56.996V62.18H144.988V58.616H154.06V56.996H142.54ZM130.372 61.208V73.844H133V63.296H157.48V61.208H130.372ZM138.508 65.24V66.896H149.416V69.56H138.508V71.216H151.936V65.24H138.508ZM156.076 61.208V70.892C156.076 71.324 155.932 71.468 155.392 71.468C154.924 71.468 153.196 71.504 151.324 71.432C151.684 72.116 152.08 73.124 152.224 73.808C154.852 73.808 156.436 73.808 157.444 73.412C158.452 73.016 158.74 72.26 158.74 70.928V61.208H156.076ZM137.284 65.24V72.512H139.768V65.24H137.284ZM142.9 40.76V44.936H145.672V40.76H142.9ZM138.688 45.62C137.896 48.932 135.772 50.732 128.896 51.596C129.364 52.064 129.976 53 130.192 53.612C137.932 52.46 140.56 50.12 141.532 45.62H138.688ZM145.924 45.368V49.148C145.924 51.416 146.68 51.956 149.74 51.956C150.352 51.956 153.952 51.956 154.636 51.956C156.832 51.956 157.552 51.2 157.768 48.356C157.084 48.212 156.112 47.924 155.572 47.564C155.428 49.724 155.284 50.012 154.276 50.012C153.52 50.012 150.604 50.012 150.028 50.012C148.768 50.012 148.588 49.904 148.588 49.148V45.368H145.924ZM128.752 43.748V49.076H131.344V45.908H157.444V48.788H160.144V43.748H128.752Z" fill="#DA3EB7"/>
</svg>
